<?xml version="1.0" encoding="utf-8"?>
<!-- Generator: Adobe Illustrator 21.1.0, SVG Export Plug-In . SVG Version: 6.00 Build 0)  -->
<svg version="1.1" id="Layer_1" xmlns="http://www.w3.org/2000/svg" xmlns:xlink="http://www.w3.org/1999/xlink" x="0px" y="0px"
	 viewBox="0 0 500 100" style="enable-background:new 0 0 500 100;" xml:space="preserve">
<style type="text/css">
	.st0{fill:#FFFFFF;stroke:#FFFFFF;stroke-miterlimit:10;}
	.st1{stroke:#FFFFFF;stroke-width:7;stroke-miterlimit:10;}
</style>
<g>
	<g>
		<path class="st0" d="M42.1669922,19.7871094h6.2641602V63.0625h20.737793v5.2568359H42.1669922V19.7871094z"/>
		<path class="st0" d="M82.4140625,19.7871094v48.5322266h-6.2641602V19.7871094H82.4140625z"/>
		<path class="st0" d="M93.3579102,20.4350586c2.7358398-0.5756836,7.0566406-1.0078125,11.4487305-1.0078125
			c6.2646484,0,10.296875,1.0800781,13.3212891,3.5283203c2.5200195,1.8720703,4.0322266,4.7524414,4.0322266,8.5683594
			c0,4.6806641-3.0961914,8.7851562-8.2084961,10.6572266v0.144043c4.6083984,1.1518555,10.0087891,4.9682617,10.0087891,12.1689453
			c0,4.1757812-1.65625,7.3447266-4.1044922,9.7207031c-3.3842773,3.0957031-8.8569336,4.5371094-16.7773438,4.5371094
			c-4.3203125,0-7.6328125-0.2890625-9.7207031-0.5761719V20.4350586z M99.6220703,40.309082h5.6884766
			c6.625,0,10.5131836-3.456543,10.5131836-8.1367188c0-5.6884766-4.3203125-7.9208984-10.6567383-7.9208984
			c-2.8803711,0-4.5366211,0.2163086-5.5449219,0.4321289V40.309082z M99.6220703,63.5664062
			c1.2241211,0.2167969,3.0244141,0.2890625,5.2568359,0.2890625c6.4804688,0,12.4570312-2.3769531,12.4570312-9.4335938
			c0-6.6245117-5.6884766-9.3603516-12.5292969-9.3603516h-5.1845703V63.5664062z"/>
		<path class="st0" d="M132.3808594,20.4350586c3.1679688-0.6479492,7.7041016-1.0078125,12.0244141-1.0078125
			c6.6972656,0,11.0175781,1.2241211,14.0419922,3.9604492c2.4482422,2.1601562,3.8164062,5.472168,3.8164062,9.2167969
			c0,6.4082031-4.0332031,10.6567383-9.1455078,12.3847656v0.2163086c3.7451172,1.2958984,5.9765625,4.7519531,7.1289062,9.7924805
			c1.5839844,6.7685547,2.7363281,11.4492188,3.7441406,13.3212891h-6.4804688
			c-0.7919922-1.3681641-1.8720703-5.5439453-3.2402344-11.5927734c-1.4404297-6.6967773-4.0322266-9.2167969-9.7207031-9.4331055
			h-5.9042969v21.0258789h-6.2646484V20.4350586z M138.6455078,42.5410156h6.4082031
			c6.6962891,0,10.9453125-3.6723633,10.9453125-9.2167969c0-6.2646484-4.5371094-9.0004883-11.1611328-9.0727539
			c-3.0244141,0-5.1845703,0.2880859-6.1923828,0.5761719V42.5410156z"/>
		<path class="st0" d="M179.3251953,53.0546875l-5.0410156,15.2646484h-6.4804688l16.4902344-48.5322266h7.5605469
			l16.5615234,48.5322266H201.71875l-5.1845703-15.2646484H179.3251953z M195.2382812,48.1577148l-4.7519531-13.9692383
			c-1.0800781-3.168457-1.8007812-6.0488281-2.5205078-8.8569336h-0.1435547
			c-0.7207031,2.8803711-1.5126953,5.8325195-2.4482422,8.784668l-4.7529297,14.0415039H195.2382812z"/>
		<path class="st0" d="M215.5400391,20.4350586c3.1679688-0.6479492,7.7041016-1.0078125,12.0244141-1.0078125
			c6.6972656,0,11.0175781,1.2241211,14.0419922,3.9604492c2.4482422,2.1601562,3.8164062,5.472168,3.8164062,9.2167969
			c0,6.4082031-4.0332031,10.6567383-9.1455078,12.3847656v0.2163086c3.7441406,1.2958984,5.9765625,4.7519531,7.1289062,9.7924805
			c1.5839844,6.7685547,2.7363281,11.4492188,3.7441406,13.3212891h-6.4804688
			c-0.7919922-1.3681641-1.8720703-5.5439453-3.2402344-11.5927734c-1.4404297-6.6967773-4.0322266-9.2167969-9.7207031-9.4331055
			h-5.9042969v21.0258789h-6.2646484V20.4350586z M221.8046875,42.5410156h6.4082031
			c6.6962891,0,10.9453125-3.6723633,10.9453125-9.2167969c0-6.2646484-4.5371094-9.0004883-11.1611328-9.0727539
			c-3.0244141,0-5.1845703,0.2880859-6.1923828,0.5761719V42.5410156z"/>
		<path class="st0" d="M264.2851562,68.3193359v-20.59375l-15.3369141-27.9384766h7.1279297l6.8408203,13.3930664
			c1.8720703,3.6723633,3.3125,6.6245117,4.8242188,10.0087891h0.1445312
			c1.3681641-3.1679688,3.0244141-6.3364258,4.8964844-10.0087891l6.984375-13.3930664h7.1289062l-16.2734375,27.8662109v20.6660156
			H264.2851562z"/>
		<path class="st0" d="M307.6992188,19.7871094h6.2646484V63.0625h20.7373047v5.2568359h-27.0019531V19.7871094z"/>
		<path class="st0" d="M349.5302734,53.0546875l-5.0410156,15.2646484h-6.4804688l16.4902344-48.5322266h7.5605469
			l16.5615234,48.5322266h-6.6972656l-5.1845703-15.2646484H349.5302734z M365.4433594,48.1577148l-4.7519531-13.9692383
			c-1.0800781-3.168457-1.8007812-6.0488281-2.5205078-8.8569336h-0.1435547
			c-0.7207031,2.8803711-1.5126953,5.8325195-2.4482422,8.784668l-4.7529297,14.0415039H365.4433594z"/>
		<path class="st0" d="M385.7460938,20.4350586c2.7363281-0.5756836,7.0566406-1.0078125,11.4492188-1.0078125
			c6.2636719,0,10.296875,1.0800781,13.3203125,3.5283203c2.5205078,1.8720703,4.0332031,4.7524414,4.0332031,8.5683594
			c0,4.6806641-3.0966797,8.7851562-8.2089844,10.6572266v0.144043c4.6083984,1.1518555,10.0087891,4.9682617,10.0087891,12.1689453
			c0,4.1757812-1.65625,7.3447266-4.1044922,9.7207031c-3.3837891,3.0957031-8.8564453,4.5371094-16.7773438,4.5371094
			c-4.3203125,0-7.6328125-0.2890625-9.7207031-0.5761719V20.4350586z M392.0107422,40.309082h5.6884766
			c6.6240234,0,10.5126953-3.456543,10.5126953-8.1367188c0-5.6884766-4.3203125-7.9208984-10.6572266-7.9208984
			c-2.8798828,0-4.5361328,0.2163086-5.5439453,0.4321289V40.309082z M392.0107422,63.5664062
			c1.2236328,0.2167969,3.0244141,0.2890625,5.2558594,0.2890625c6.4804688,0,12.4570312-2.3769531,12.4570312-9.4335938
			c0-6.6245117-5.6884766-9.3603516-12.5283203-9.3603516h-5.1845703V63.5664062z"/>
		<path class="st0" d="M423.9052734,60.6865234c2.8085938,1.7285156,6.9130859,3.1689453,11.2333984,3.1689453
			c6.4082031,0,10.1523438-3.3847656,10.1523438-8.28125c0-4.5361328-2.5917969-7.128418-9.1445312-9.6489258
			c-7.9208984-2.8081055-12.8173828-6.9125977-12.8173828-13.7529297c0-7.5610352,6.2646484-13.1772461,15.6972656-13.1772461
			c4.96875,0,8.5693359,1.1518555,10.7294922,2.3759766l-1.7285156,5.112793
			c-1.5839844-0.8642578-4.8242188-2.3041992-9.2167969-2.3041992c-6.625,0-9.1445312,3.9599609-9.1445312,7.2724609
			c0,4.5366211,2.9521484,6.7685547,9.6484375,9.3608398c8.2089844,3.168457,12.3847656,7.128418,12.3847656,14.2573242
			c0,7.4882812-5.5439453,13.96875-16.9931641,13.96875c-4.6806641,0-9.7929688-1.3671875-12.3847656-3.0957031
			L423.9052734,60.6865234z"/>
	</g>
	<line class="st1" x1="37" y1="88.5" x2="454" y2="88.5"/>
</g>
<g>
</g>
<g>
</g>
<g>
</g>
<g>
</g>
<g>
</g>
<g>
</g>
<g>
</g>
<g>
</g>
<g>
</g>
<g>
</g>
<g>
</g>
<g>
</g>
<g>
</g>
<g>
</g>
<g>
</g>
</svg>
