<?xml version="1.0" encoding="UTF-8"?>
<svg width="145px" height="180px" viewBox="0 0 145 180" version="1.1" xmlns="http://www.w3.org/2000/svg" xmlns:xlink="http://www.w3.org/1999/xlink">
    <!-- Generator: Sketch 42 (36781) - http://www.bohemiancoding.com/sketch -->
    <title>Combined Shape</title>
    <desc>Created with Sketch.</desc>
    <defs></defs>
    <g id="Page-1" stroke="none" stroke-width="1" fill="none" fill-rule="evenodd">
        <g id="Artboard" transform="translate(-138.000000, -106.000000)" fill="#FFFFFF">
            <path d="M182.000046,122.007574 L169.000046,122.007574 L169.000046,106 L253,106 L253,122.007574 L243,122.007574 L242.500046,193 L283.000046,270 C283.000046,270 283.085574,277.329636 281.500046,280 C279.914517,282.670364 273.500046,286 273.500046,286 L147.500046,286 C147.500046,286 141.03072,282.577979 139.500046,280 C137.969371,277.422021 138.000046,270 138.000046,270 L182.000046,193 L182.000046,122.007574 Z M193.5,122.007574 L193.500046,186.507812 L231.000046,186.507812 L231.000046,122.007574 L193.5,122.007574 Z M210.500046,253 C222.65031,253 232.500046,243.150264 232.500046,231 C232.500046,218.849736 222.65031,209 210.500046,209 C198.349781,209 188.500046,218.849736 188.500046,231 C188.500046,243.150264 198.349781,253 210.500046,253 Z M178.500046,274 C185.679747,274 191.500046,268.179702 191.500046,261 C191.500046,253.820298 185.679747,248 178.500046,248 C171.320344,248 165.500046,253.820298 165.500046,261 C165.500046,268.179702 171.320344,274 178.500046,274 Z M242.500046,274 C248.022893,274 252.500046,269.522847 252.500046,264 C252.500046,258.477153 248.022893,254 242.500046,254 C236.977198,254 232.500046,258.477153 232.500046,264 C232.500046,269.522847 236.977198,274 242.500046,274 Z" id="Combined-Shape"></path>
        </g>
    </g>
</svg>